<svg width="50" height="48" viewBox="0 0 50 48" fill="none" xmlns="http://www.w3.org/2000/svg">
<g clip-path="url(#clip0_2058_6579)">
<path d="M30.2111 48C29.645 48.0008 29.0895 47.8528 28.6048 47.572L18.1881 41.572C17.7252 41.3057 17.342 40.9288 17.0758 40.4781C16.8097 40.0273 16.6696 39.5181 16.6694 39V28.67L4.24023 14.07C2.84074 12.5288 2.07483 10.5505 2.08606 8.506C2.08882 6.25088 3.02321 4.08888 4.68426 2.49427C6.34531 0.899662 8.59739 0.00264655 10.9465 0L39.059 0C40.7669 0.000596883 42.4383 0.47496 43.8721 1.36601C45.3058 2.25707 46.4408 3.52685 47.1405 5.02259C47.8401 6.51833 48.0747 8.17629 47.816 9.797C47.5572 11.4177 46.8161 12.9321 45.6819 14.158L33.3361 28.764V45C33.3361 45.7957 33.0068 46.5587 32.4208 47.1213C31.8347 47.6839 31.0399 48 30.2111 48ZM22.9194 37.3L27.0861 39.7V27.7C27.0855 27.0111 27.332 26.343 27.784 25.808L40.9194 10.274C41.3923 9.79629 41.6601 9.16495 41.6694 8.506C41.6683 7.84169 41.3929 7.2049 40.9036 6.73516C40.4143 6.26542 39.751 6.00106 39.059 6H10.9465C10.4433 6.00048 9.95102 6.14043 9.52872 6.40304C9.10642 6.66565 8.7721 7.03974 8.56594 7.48036C8.35977 7.92097 8.29053 8.40937 8.36654 8.88686C8.44254 9.36434 8.66056 9.8106 8.99439 10.172L22.2152 25.702C22.6708 26.2378 22.9196 26.9083 22.9194 27.6V37.3Z" fill="#005F4B"/>
<path d="M22.9194 37.3L27.0861 39.7V27.7C27.0855 27.0111 27.332 26.343 27.784 25.808L40.9194 10.274C41.3923 9.79629 41.6601 9.16495 41.6694 8.506C41.6683 7.84169 41.3929 7.2049 40.9036 6.73516C40.4143 6.26542 39.751 6.00106 39.059 6H10.9465C10.4433 6.00048 9.95102 6.14043 9.52872 6.40304C9.10642 6.66565 8.7721 7.03974 8.56594 7.48036C8.35977 7.92097 8.29053 8.40937 8.36654 8.88686C8.44254 9.36434 8.66056 9.8106 8.99439 10.172L22.2152 25.702C22.6708 26.2378 22.9196 26.9083 22.9194 27.6V37.3Z" fill="#005F4B"/>
</g>
<defs>
<clipPath id="clip0_2058_6579">
<rect width="50" height="48" fill="white"/>
</clipPath>
</defs>
</svg>
